<?xml version="1.0" encoding="UTF-8"?><svg id="_レイヤー_2" xmlns="http://www.w3.org/2000/svg" viewBox="0 0 684.01 103.52"><defs><style>.cls-1{fill:none;}.cls-2{fill:#231815;}</style></defs><g id="_レイヤー_2-2"><path class="cls-2" d="m321.75,38.55h12.17c.48,0,.87.35.87.77v2.29c0,.68.93,1.02,1.48.54,2.05-1.77,3.85-3.01,5.38-3.72,2.02-.91,4.55-1.37,7.61-1.37,6.42,0,11.58,2.35,15.46,7.04.35.42,1.03.43,1.4.03,4.29-4.71,9.97-7.06,17.03-7.06,13.56,0,20.35,7.29,20.35,21.88v32.24c0,.43-.39.77-.87.77h-12.24c-.48,0-.87-.35-.87-.77v-28.89c0-5.12-.7-8.74-2.1-10.86-1.44-2.16-3.81-3.24-7.11-3.24-3.83,0-6.63,1.28-8.38,3.84-1.75,2.56-2.63,6.67-2.63,12.34v26.81c0,.43-.39.77-.87.77h-12.24c-.48,0-.87-.35-.87-.77v-28.73c0-9.5-3.09-14.26-9.28-14.26-3.92,0-6.77,1.3-8.56,3.89-1.79,2.6-2.69,6.69-2.69,12.28v26.81c0,.43-.39.77-.87.77h-12.17c-.48,0-.87-.35-.87-.77v-51.87c0-.43.39-.77.87-.77Z"/><path class="cls-2" d="m158.2,37.55v12.18c0,1.4-1.71,2.06-2.67,1.05-1.9-2-3.66-3.46-5.28-4.39-2.3-1.38-5.01-2.07-8.12-2.07-4.88,0-8.93,1.71-12.15,5.12-3.23,3.42-4.84,7.7-4.84,12.84s1.55,9.58,4.66,12.96c3.15,3.38,7.16,5.07,12.03,5.07,3.11,0,5.85-.67,8.23-2.02,1.62-.92,3.43-2.44,5.44-4.56.97-1.02,2.68-.36,2.68,1.05v12.06c0,.59-.33,1.14-.86,1.39-4.97,2.44-9.94,3.65-14.92,3.65-8.68,0-15.93-2.8-21.77-8.41-5.84-5.64-8.75-12.65-8.75-21.02s2.96-15.43,8.87-21.19c5.91-5.76,13.17-8.64,21.77-8.64,5.21,0,10.15,1.18,14.82,3.53.52.26.84.8.84,1.38Z"/><path class="cls-2" d="m163.87,61.85c0-8.1,2.9-14.99,8.69-20.67,5.8-5.68,12.86-8.52,21.19-8.52s15.47,2.86,21.31,8.58c5.76,5.72,8.64,12.75,8.64,21.08s-2.9,15.45-8.69,21.13c-5.84,5.64-12.99,8.46-21.48,8.46s-15.45-2.88-21.13-8.64c-5.68-5.68-8.52-12.82-8.52-21.42Zm13.24.23c0,5.61,1.5,10.04,4.49,13.3,3.07,3.3,7.12,4.95,12.15,4.95s9.12-1.63,12.15-4.89c3.03-3.26,4.55-7.62,4.55-13.07s-1.52-9.81-4.55-13.07c-3.07-3.3-7.12-4.95-12.15-4.95s-8.96,1.65-12.03,4.95c-3.07,3.3-4.61,7.56-4.61,12.78Z"/><path class="cls-2" d="m230.77,38.31h12.17c.48,0,.87.35.87.77v2.29c0,.68.93,1.02,1.48.54,2.05-1.77,3.85-3.01,5.38-3.72,2.02-.91,4.55-1.37,7.61-1.37,6.42,0,11.58,2.35,15.46,7.04.35.42,1.03.43,1.4.03,4.29-4.71,9.97-7.06,17.03-7.06,13.56,0,20.35,7.29,20.35,21.88v32.24c0,.43-.39.77-.87.77h-12.24c-.48,0-.87-.35-.87-.77v-28.89c0-5.12-.7-8.74-2.1-10.86-1.44-2.16-3.81-3.24-7.11-3.24-3.83,0-6.63,1.28-8.38,3.84-1.75,2.56-2.63,6.67-2.63,12.34v26.81c0,.43-.39.77-.87.77h-12.24c-.48,0-.87-.35-.87-.77v-28.73c0-9.5-3.09-14.26-9.28-14.26-3.92,0-6.77,1.3-8.56,3.89-1.79,2.6-2.69,6.69-2.69,12.28v26.81c0,.43-.39.77-.87.77h-12.17c-.48,0-.87-.35-.87-.77v-51.87c0-.43.39-.77.87-.77Z"/><path class="cls-2" d="m414.8,18.98c0-2.43.89-4.53,2.66-6.31,1.77-1.77,3.9-2.66,6.37-2.66s4.66.89,6.43,2.66c1.77,1.73,2.66,3.86,2.66,6.37s-.89,4.66-2.66,6.43c-1.66,1.7-3.68,2.58-6.05,2.65-2.58.08-5.14-.96-6.92-2.83-1.66-1.74-2.49-3.84-2.49-6.32Zm15.8,19.95v52.28c0,.3-.28.55-.62.55h-12.68c-.34,0-.62-.24-.62-.55v-52.28c0-.3.28-.55.62-.55h12.68c.34,0,.62.24.62.55Z"/><path class="cls-2" d="m477.41,44.74l-9.22,4.86c-.29.15-.61.02-.79-.25-1.75-2.64-4.96-3.99-7.15-4-1.21,0-2.25.4-3.11,1.19-.86.8-1.29,1.81-1.29,3.06,0,2.17,2.55,4.33,7.64,6.46,7.01,2.99,11.73,5.74,14.15,8.27,2.43,2.52,3.64,5.92,3.64,10.19,0,5.47-2.04,10.05-6.11,13.74-3.95,3.49-8.73,5.24-14.33,5.24-9.41,0-16.12-4.46-20.14-13.38-.13-.29,0-.64.29-.77l10.26-4.72c.27-.13.6-.01.76.24,1.43,2.45,2.54,4.02,3.31,4.71,1.6,1.48,3.52,2.21,5.76,2.21,4.46,0,6.69-2.02,6.69-6.05,0-2.32-1.71-4.49-5.14-6.5-.02,0-.03-.02-.05-.03-1.32-.65-2.65-1.29-3.97-1.91-1.33-.62-2.68-1.26-4.05-1.92-3.84-1.86-6.54-3.73-8.11-5.59-2-2.37-3-5.41-3-9.14,0-4.93,1.7-9,5.11-12.22,3.48-3.22,7.71-4.83,12.69-4.83,7.15,0,12.85,3.22,16.41,10.37.14.28.03.63-.25.78Z"/><path class="cls-2" d="m544.62,38.94c.34,0,.62.24.62.54v29.91c0,8.79,3.94,13.18,11.81,13.18s11.81-4.39,11.81-13.18v-29.91c0-.3.28-.54.62-.54h12.68c.34,0,.62.24.62.54v30.18c0,4.25-.6,7.92-1.79,11-1.16,2.76-3.15,5.25-6,7.46-4.7,3.6-10.68,5.39-17.93,5.39s-13.17-1.8-17.87-5.39c-2.89-2.21-4.93-4.7-6.12-7.46-1.16-2.47-1.73-6.14-1.73-11v-30.18c0-.3.28-.54.62-.54h12.68Z"/><path class="cls-2" d="m591.86,37.88h12.68c.34,0,.62.28.62.62v3.26c0,.54.66.82,1.05.44,2.13-2.11,4.05-3.59,5.76-4.44,2.02-1.03,4.41-1.55,7.17-1.55,3.51,0,7.18,1.1,10.99,3.29.28.16.4.53.25.82l-5.79,11.59c-.17.33-.59.43-.9.22-2.44-1.63-4.82-2.44-7.15-2.44-7.59,0-11.38,5.73-11.38,17.19l-.11,24.34c0,.34-.28.62-.62.62h-12.68c-.34,0-.62-.28-.62-.62l.11-52.73c0-.34.28-.62.62-.62Z"/><path class="cls-2" d="m683.14,66.77h-39.36c-.34,0-.62.3-.59.65.44,4.35,1.93,7.83,4.48,10.46,2.67,2.71,6.1,4.07,10.29,4.07,3.25,0,5.95-.77,8.08-2.32,2.01-1.49,4.3-4.21,6.85-8.14.17-.26.5-.35.77-.2l10.05,5.61c.29.16.38.53.21.81-1.61,2.68-3.31,5-5.1,6.95-1.9,2.07-3.93,3.78-6.1,5.12-2.17,1.34-4.52,2.31-7.03,2.94-2.52.62-5.25.93-8.2.93-8.45,0-15.23-2.71-20.34-8.14-5.12-5.46-7.67-12.71-7.67-21.74s2.48-16.2,7.44-21.74c5-5.46,11.63-8.2,19.88-8.2s14.92,2.65,19.76,7.96c4.8,5.27,7.21,12.58,7.21,21.91l-.05,2.51c0,.32-.26.57-.58.57Zm-13.63-10.7c.39,0,.67-.38.56-.75-1.94-6.48-6.26-9.71-12.99-9.71-1.59,0-3.08.24-4.48.73-1.4.48-2.66,1.18-3.81,2.09-1.14.91-2.12,2.01-2.94,3.28-.69,1.08-1.24,2.28-1.65,3.61-.11.37.17.75.56.75h24.73Z"/><path class="cls-2" d="m520.73,43.99l-9.22,4.86c-.29.15-.61.02-.79-.25-1.75-2.64-4.96-3.99-7.15-4-1.21,0-2.25.4-3.11,1.19-.86.8-1.29,1.81-1.29,3.06,0,2.17,2.55,4.33,7.64,6.46,7.01,2.99,11.73,5.74,14.15,8.27,2.43,2.52,3.64,5.92,3.64,10.19,0,5.47-2.04,10.05-6.11,13.74-3.95,3.49-8.73,5.24-14.33,5.24-9.41,0-16.12-4.46-20.14-13.38-.13-.29,0-.64.29-.77l10.26-4.72c.27-.13.6-.01.76.24,1.43,2.45,2.54,4.02,3.31,4.71,1.6,1.48,3.52,2.21,5.76,2.21,4.46,0,6.69-2.02,6.69-6.05,0-2.32-1.71-4.49-5.14-6.5-.02,0-.03-.02-.05-.03-1.32-.65-2.65-1.29-3.97-1.91-1.33-.62-2.68-1.26-4.05-1.92-3.84-1.86-6.54-3.73-8.11-5.59-2-2.37-3-5.41-3-9.14,0-4.93,1.7-9,5.11-12.22,3.48-3.22,7.71-4.83,12.69-4.83,7.15,0,12.85,3.22,16.41,10.37.14.28.03.63-.25.78Z"/><path class="cls-1" d="m79.63,60.64c2.14-5.31,3.82-10.64,5-15.92.15-.67.96-.93,1.47-.48,9.77,8.59,14.92,17.82,14.03,25.02-.07.59-.71.94-1.25.71l-18.77-8.16c-.45-.2-.66-.71-.47-1.17Z"/><path class="cls-1" d="m59.79,23.6c-4.61-1.82-9.24-3.29-13.83-4.39-1.29-.31-1.77-1.88-.88-2.86,7.81-8.52,16.05-13.23,22.77-13.05,1.22.03,2.02,1.3,1.53,2.42l-7.37,16.96c-.37.86-1.36,1.26-2.22.92Z"/><path class="cls-2" d="m79.47,33.77c-3.94-2.6-8.17-4.98-12.65-7.11-.84-.4-1.22-1.4-.84-2.25l7.37-16.96c.49-1.12,1.96-1.41,2.82-.54,4.71,4.8,6.9,14.03,6,25.55-.1,1.32-1.58,2.04-2.69,1.31Z"/><path d="m24.1,35.05c-.62,0-1.28-.15-1.96-.45l-15.66-6.47c-.12-.05-.17-.17-.18-.23-.01-.06-.02-.18.07-.29,3.74-4.47,11.21-6.93,21.03-6.93,2.03,0,4.17.11,6.34.32.11.01.19.07.24.16.06.12.05.27-.03.41-1.28,2.18-2.33,4.02-3.36,5.81-1.02,1.79-2.02,3.53-3.19,5.52-.84,1.43-1.95,2.15-3.29,2.15Z"/><path d="m35.57,99.77c-.38,0-.73-.2-.93-.53-.21-.34-.25-.74-.09-1.1l7.37-16.96c.19-.43.61-.7,1.07-.7.15,0,.29.03.43.08,4.63,1.83,9.3,3.31,13.91,4.42.41.1.72.4.85.8.12.4.03.82-.26,1.13-7.5,8.18-15.51,12.87-22,12.87h-.35Z"/><path d="m28.46,96.67c-.31,0-.59-.12-.81-.34-4.59-4.67-6.72-13.82-5.83-25.11.05-.7.64-1.08,1.17-1.08.23,0,.45.07.64.2,3.95,2.61,8.23,5.02,12.72,7.15.57.27.82.94.57,1.52l-7.37,16.96c-.19.43-.61.71-1.08.71Z"/><path d="m62.04,81.38c-.15,0-.31-.02-.46-.05-5.72-1.17-11.23-2.7-15.51-4.32-.62-.23-1.1-.7-1.35-1.3-.25-.6-.25-1.25,0-1.85l6.63-13.41c.71-1.63,2.29-2.67,4.04-2.67.6,0,1.19.12,1.75.37l13.67,4.99c.56.25,1.01.72,1.23,1.33.23.62.19,1.28-.1,1.88-1.95,3.94-4.89,9.69-8,14.05-.44.61-1.15.98-1.91.98Z"/><path d="m37.02,72.38s.02,0,.03.01l-.05-.13.02.11Z"/><path d="m79.62,39.91c-4.08-2.9-8.52-5.54-13.28-7.89-1.49-.74-3.3-.07-3.97,1.46l-6.32,12.75c-2.55,5.85-6.12,6.01-10.1,4.99-1.71-.44-13.75-4.76-13.75-4.76-2.22-.97-4.8.09-5.69,2.32-.17.46-.34.93-.5,1.39-.18.51-.36,1.02-.53,1.54-.28.84-.54,1.69-.79,2.53-.09.31-.19.61-.28.92-.7,2.41-1.3,4.82-1.78,7.21-.06.28-.07.56-.05.83.08.82.51,1.59,1.2,2.08,4.07,2.9,8.5,5.54,13.24,7.89,1.5.74,3.32.1,3.99-1.44h.02s3.6-6.42,5.42-10.65c.81-1.88,1.68-3.42,2.52-4.65,2.12-3.11,5.49-2.89,8.3-2.25,2.86.81,15.29,5.14,15.29,5.14,1.63.52,3.3-.08,3.89-1.64,1.88-4.96,3.32-9.92,4.33-14.82.23-1.13-.23-2.28-1.16-2.95Z"/><path d="m31.93,34.88c-2.5,4.09-5.19,5.48-8.9,4.85-4.41-.75-18.51-6.85-18.51-6.85-.55-.24-1.18.11-1.25.71-.9,7.21,4.26,16.43,14.03,25.02.51.45,1.85.18,2.01-.48.9-3.75,2.04-7.23,3.43-10.64,1.57-3.85,4.54-6.42,8.6-5.85,2.79.39,14.92,4.65,14.92,4.65,2.68.7,4.44.13,6.27-2.91s6.42-12.96,6.42-12.96c.66-1.53-.08-3.3-1.64-3.89-4.96-1.88-10.46-3.58-15.36-4.58-1.11-.23-2.07-.09-2.95,1.16l-7.07,11.77Z"/><path class="cls-2" d="m97.09,75.65c-4.66,5.57-14.92,8.1-27.87,6.82-.68-.07-1.04-.84-.65-1.41,3.05-4.47,5.81-9.33,8.23-14.52.21-.44.73-.64,1.18-.45l18.77,8.16c.55.24.72.94.34,1.4Z"/><path d="m13.49,16.91c-.65.72.05,1.83.98,1.57,5.33-1.53,11.81-2.01,19.1-1.35,1.09.1,1.9-.98,1.5-2l-3.63-9.24c-.31-.79-1.22-1.16-1.99-.79-6.1,2.9-11.5,6.91-15.96,11.82Z"/><path class="cls-2" d="m56.09.18c-6.61-.56-13.29.17-19.74,2.2-.81.25-1.23,1.15-.92,1.93l3.63,9.24c.4,1.02,1.73,1.25,2.46.44,4.89-5.44,9.97-9.5,14.91-12,.86-.44.62-1.73-.35-1.81Z"/><path d="m47.43,103.34c-.97-.08-1.21-1.38-.35-1.81,4.94-2.5,10.02-6.56,14.91-12,.73-.81,2.06-.58,2.46.44l3.63,9.24c.31.79-.11,1.68-.92,1.93-6.45,2.02-13.13,2.76-19.74,2.2Z"/><path d="m90.03,86.61c-4.46,4.91-9.86,8.92-15.96,11.82-.76.36-1.68,0-1.99-.79l-3.63-9.24c-.4-1.02.41-2.09,1.5-2,7.29.66,13.77.18,19.1-1.35.93-.27,1.63.85.98,1.57Z"/><path d="m.18,47.43c.08-.97,1.38-1.21,1.81-.35,2.5,4.94,6.56,10.02,12,14.91.81.73.58,2.06-.44,2.46l-9.24,3.63c-.79.31-1.68-.11-1.93-.92C.36,60.71-.38,54.03.18,47.43Z"/><path d="m16.91,90.03c-4.91-4.46-8.92-9.86-11.82-15.96-.36-.76,0-1.68.79-1.99l9.24-3.63c1.02-.4,2.09.41,2,1.5-.66,7.29-.18,13.77,1.35,19.1.27.93-.85,1.63-1.57.98Z"/><path class="cls-2" d="m86.61,13.49c-.72-.65-1.83.05-1.57.98,1.53,5.33,2.01,11.81,1.35,19.1-.1,1.09.98,1.9,2,1.5l9.24-3.63c.79-.31,1.16-1.22.79-1.99-2.9-6.1-6.91-11.5-11.82-15.96Z"/><path class="cls-2" d="m89.96,39.07c-1.02.4-1.25,1.73-.44,2.46,5.44,4.89,9.5,9.97,12,14.91.44.86,1.73.62,1.81-.35.56-6.61-.17-13.29-2.2-19.74-.25-.81-1.15-1.23-1.93-.92l-9.24,3.63Z"/></g></svg>