<?xml version="1.0" encoding="UTF-8" standalone="no"?>
<!DOCTYPE svg PUBLIC "-//W3C//DTD SVG 1.1//EN" "http://www.w3.org/Graphics/SVG/1.1/DTD/svg11.dtd">
<svg xmlns="http://www.w3.org/2000/svg" version="1.1" viewBox="0.00 0.00 1370.00 164.00">
<g stroke-width="2.00" fill="none" stroke-linecap="butt">
<path stroke="#2d2d2d" vector-effect="non-scaling-stroke" d="
  M 952.20 47.27
  L 952.01 45.05
  A 0.13 0.13 0.0 0 0 951.77 45.00
  L 951.48 45.47
  Q 951.27 45.83 951.28 46.24
  L 951.87 96.15"
/>
<path stroke="#2d2d2d" vector-effect="non-scaling-stroke" d="
  M 881.03 51.92
  Q 879.71 54.12 880.44 55.56
  Q 880.58 55.85 881.01 55.45"
/>
<path stroke="#2d2d2d" vector-effect="non-scaling-stroke" d="
  M 881.75 63.34
  Q 880.54 61.66 880.15 64.03
  Q 879.48 68.05 880.94 68.10"
/>
<path stroke="#2d2d2d" vector-effect="non-scaling-stroke" d="
  M 881.57 85.88
  L 881.98 75.93
  A 0.54 0.54 0.0 0 0 881.13 75.47
  Q 880.69 75.78 881.12 76.24"
/>
<path stroke="#2d2d2d" vector-effect="non-scaling-stroke" d="
  M 1290.67 89.35
  Q 1292.42 85.91 1287.77 89.04"
/>
<path stroke="#2d2d2d" vector-effect="non-scaling-stroke" d="
  M 871.22 91.27
  Q 869.94 90.95 870.04 92.30
  A 1.25 1.24 -1.5 0 0 871.26 93.45
  C 875.20 93.50 884.75 94.77 887.75 92.58"
/>
<path stroke="#2d2d2d" vector-effect="non-scaling-stroke" d="
  M 890.72 110.98
  Q 889.94 110.51 889.21 111.03
  Q 888.81 111.31 889.16 111.65
  Q 890.54 112.96 892.07 112.28"
/>
<path stroke="#2d2d2d" vector-effect="non-scaling-stroke" d="
  M 859.49 111.88
  Q 861.08 112.30 862.44 111.49
  Q 862.90 111.22 862.69 110.72
  Q 862.08 109.31 860.71 110.04"
/>
<path stroke="#2d2d2d" vector-effect="non-scaling-stroke" d="
  M 889.24 101.96
  Q 891.05 101.71 892.67 100.05
  Q 892.97 99.75 892.56 99.63
  Q 890.54 99.05 889.67 99.99"
/>
<path stroke="#2d2d2d" vector-effect="non-scaling-stroke" d="
  M 863.60 99.77
  Q 862.44 98.71 860.66 99.61
  Q 860.22 99.84 860.50 100.23
  Q 861.70 101.93 863.82 102.12"
/>
</g>
<path fill="#d32c1f" d="
  M 62.91 160.65
  C 27.62 152.35 3.33 123.14 0.52 87.50
  C -4.16 28.07 57.74 -17.03 112.72 8.10
  Q 113.18 8.31 113.64 8.10
  C 141.49 -4.57 172.99 0.34 196.53 19.44
  Q 224.37 42.02 225.92 79.01
  C 227.70 121.47 196.84 156.46 155.01 162.05
  C 140.25 164.03 128.79 161.72 114.88 156.55
  C 114.01 156.22 112.40 156.06 111.55 156.42
  Q 88.10 166.58 62.91 160.65
  Z
  M 113.9758 155.2145
  A 73.32 72.48 89.3 0 0 185.5546 81.0145
  A 73.32 72.48 89.3 0 0 112.1842 8.5855
  A 73.32 72.48 89.3 0 0 40.6054 82.7855
  A 73.32 72.48 89.3 0 0 113.9758 155.2145
  Z"
/>
<path fill="#5a5a5a" d="
  M 599.69 43.69
  C 620.22 21.91 657.95 21.36 680.06 41.15
  Q 680.40 41.46 680.11 41.82
  L 666.52 58.60
  A 0.59 0.59 0.0 0 1 665.69 58.69
  C 657.77 52.35 650.77 48.39 640.37 48.27
  C 619.29 48.03 606.63 66.54 608.76 86.54
  C 611.69 114.08 640.40 123.65 662.09 109.55
  Q 662.50 109.28 662.50 108.79
  L 662.50 96.00
  Q 662.50 95.25 661.75 95.25
  L 638.50 95.25
  Q 637.75 95.25 637.75 94.50
  L 637.75 74.00
  Q 637.75 73.25 638.50 73.25
  L 683.98 73.25
  Q 684.30 73.25 684.30 73.57
  Q 684.21 95.26 684.25 117.00
  Q 684.26 119.67 683.29 120.51
  C 662.31 138.60 631.24 143.37 607.33 127.65
  C 579.36 109.25 577.60 67.11 599.69 43.69
  Z"
/>
<path fill="#5a5a5a" d="
  M 287.35 135.75
  L 265.89 135.75
  A 0.39 0.39 0.0 0 1 265.50 135.36
  L 265.50 28.39
  A 0.39 0.39 0.0 0 1 265.89 28.00
  L 289.98 28.00
  A 0.39 0.39 0.0 0 1 290.31 28.19
  L 317.77 73.22
  A 0.39 0.39 0.0 0 0 318.43 73.22
  L 346.40 28.18
  A 0.39 0.39 0.0 0 1 346.73 28.00
  L 369.61 28.00
  A 0.39 0.39 0.0 0 1 370.00 28.39
  L 370.00 135.36
  A 0.39 0.39 0.0 0 1 369.61 135.75
  L 348.39 135.75
  A 0.39 0.39 0.0 0 1 348.00 135.36
  L 348.00 66.52
  A 0.39 0.39 0.0 0 0 347.28 66.31
  L 318.14 110.62
  A 0.39 0.39 0.0 0 1 317.48 110.62
  L 288.47 66.54
  A 0.39 0.39 0.0 0 0 287.75 66.75
  L 287.74 135.36
  A 0.39 0.39 0.0 0 1 287.35 135.75
  Z"
/>
<path fill="#5a5a5a" d="
  M 388.14 28.17
  A 0.17 0.17 0.0 0 1 388.31 28.00
  L 409.45 28.00
  Q 409.98 28.00 409.98 28.53
  Q 410.03 58.90 410.02 89.18
  C 410.01 104.86 418.74 116.25 435.44 115.41
  C 451.04 114.62 457.46 103.31 457.48 88.65
  Q 457.52 58.57 457.49 28.52
  A 0.52 0.52 0.0 0 1 458.01 28.00
  L 478.26 28.00
  A 0.93 0.93 0.0 0 1 479.19 28.92
  Q 479.46 60.29 478.98 91.74
  C 478.46 126.04 452.47 142.60 420.18 135.57
  C 396.80 130.49 388.28 111.54 388.28 89.48
  Q 388.26 60.50 388.14 28.17
  Z"
/>
<path fill="#5a5a5a" d="
  M 519.78 73.25
  L 565.95 73.25
  A 0.30 0.30 0.0 0 1 566.25 73.55
  L 566.25 94.95
  A 0.30 0.30 0.0 0 1 565.95 95.25
  L 519.69 95.25
  A 0.30 0.30 0.0 0 0 519.39 95.55
  L 519.50 135.45
  A 0.30 0.30 0.0 0 1 519.20 135.75
  L 497.80 135.75
  A 0.30 0.30 0.0 0 1 497.50 135.45
  L 497.50 28.30
  A 0.30 0.30 0.0 0 1 497.80 28.00
  L 579.45 28.00
  A 0.30 0.30 0.0 0 1 579.75 28.30
  L 579.75 50.26
  A 0.30 0.30 0.0 0 1 579.45 50.56
  L 519.78 50.30
  A 0.30 0.30 0.0 0 0 519.48 50.60
  L 519.48 72.95
  A 0.30 0.30 0.0 0 0 519.78 73.25
  Z"
/>
<path fill="#000000" d="
  M 1282.86 55.45
  C 1288.28 50.67 1292.97 43.08 1295.64 36.58
  A 2.66 2.66 0.0 0 1 1298.20 34.94
  L 1307.23 35.31
  A 0.63 0.63 0.0 0 1 1307.79 36.18
  Q 1300.31 54.36 1284.62 66.07
  Q 1282.50 67.65 1282.50 65.00
  L 1282.50 56.24
  A 1.08 1.04 -21.4 0 1 1282.86 55.45
  Z"
/>
<path fill="#000000" d="
  M 903.03 48.50
  A 1.01 1.00 -6.2 0 0 902.04 49.72
  Q 902.43 51.47 901.80 52.21
  Q 901.37 52.71 899.92 52.63
  Q 896.13 52.42 892.30 52.52
  Q 891.79 52.53 891.57 52.06
  C 891.22 51.28 891.34 50.46 890.90 49.82
  C 889.83 48.23 888.55 48.93 887.15 48.86
  Q 873.61 48.24 860.05 48.57
  Q 859.53 48.58 859.47 49.10
  L 859.15 51.76
  A 0.83 0.80 79.1 0 1 858.75 52.37
  C 857.14 53.33 852.14 52.55 849.11 52.69
  Q 848.56 52.72 848.20 52.30
  Q 847.48 51.46 847.86 50.31
  A 1.24 1.24 0.0 0 0 846.70 48.68
  L 833.87 48.43
  A 1.35 1.35 0.0 0 1 832.54 47.12
  L 832.41 42.88
  Q 832.35 41.13 834.11 41.12
  L 846.05 41.08
  A 1.60 1.60 0.0 0 0 847.62 39.70
  L 848.02 36.83
  A 0.80 0.80 0.0 0 1 848.66 36.14
  Q 853.22 35.28 857.77 36.08
  A 1.58 1.57 -0.5 0 1 859.04 37.32
  L 859.68 40.54
  Q 859.83 41.27 860.58 41.26
  L 890.35 41.03
  Q 891.16 41.02 891.19 40.22
  L 891.29 37.42
  A 1.76 1.76 0.0 0 1 893.08 35.72
  L 900.52 35.88
  A 1.81 1.80 87.9 0 1 902.28 37.52
  L 902.54 40.30
  Q 902.60 40.92 903.23 40.93
  L 916.96 41.15
  A 1.31 1.31 0.0 0 1 918.25 42.46
  L 918.25 47.25
  A 1.25 1.25 0.0 0 1 917.00 48.50
  L 903.03 48.50
  Z"
/>
<path fill="#000000" d="
  M 1204.99 73.25
  L 1216.39 73.25
  Q 1217.28 73.25 1217.25 74.14
  L 1217.08 80.09
  Q 1217.06 80.81 1216.34 80.80
  L 1205.22 80.63
  A 0.96 0.96 0.0 0 0 1204.25 81.59
  L 1204.25 110.03
  A 1.04 1.04 0.0 0 0 1205.54 111.04
  L 1216.10 108.45
  A 0.93 0.93 0.0 0 1 1217.25 109.37
  L 1217.12 115.83
  A 1.20 1.18 83.6 0 1 1216.23 116.96
  Q 1198.99 121.43 1181.42 124.24
  A 1.44 1.44 0.0 0 1 1179.75 122.82
  L 1179.75 115.99
  A 1.18 1.17 -3.9 0 1 1180.77 114.83
  L 1193.63 113.08
  A 1.22 1.22 0.0 0 0 1194.68 111.88
  L 1194.91 82.21
  A 1.45 1.45 0.0 0 0 1193.46 80.75
  L 1181.30 80.75
  A 1.58 1.57 -87.8 0 1 1179.73 79.05
  L 1180.08 74.45
  Q 1180.17 73.26 1181.36 73.25
  L 1194.13 73.25
  A 0.88 0.87 90.0 0 0 1195.00 72.37
  L 1195.00 64.76
  A 1.67 1.67 0.0 0 0 1193.25 63.09
  L 1188.67 63.29
  A 0.90 0.89 -17.5 0 1 1187.86 62.87
  Q 1187.09 61.66 1185.79 61.47
  A 1.30 1.26 28.9 0 0 1184.77 61.75
  L 1181.33 64.53
  A 0.97 0.97 0.0 0 1 1179.75 63.78
  L 1179.75 54.28
  Q 1179.75 53.72 1180.16 53.34
  Q 1187.67 46.37 1192.30 37.25
  A 2.70 2.69 -77.1 0 1 1194.63 35.78
  C 1197.57 35.70 1204.65 34.69 1206.40 37.78
  Q 1210.54 45.06 1216.91 50.50
  A 0.77 0.73 21.2 0 1 1217.18 51.07
  L 1217.23 60.88
  A 0.68 0.68 0.0 0 1 1216.17 61.45
  L 1213.01 59.35
  Q 1212.39 58.93 1212.31 59.67
  L 1211.95 62.73
  A 0.55 0.55 0.0 0 1 1211.45 63.22
  C 1209.43 63.40 1204.12 61.83 1204.22 65.17
  C 1204.30 67.63 1204.22 70.09 1204.27 72.55
  A 0.72 0.72 0.0 0 0 1204.99 73.25
  Z
  M 1191.48 55.69
  A 0.31 0.31 0.0 0 0 1191.75 56.17
  L 1208.07 55.82
  A 0.31 0.31 0.0 0 0 1208.32 55.34
  L 1199.90 43.42
  A 0.31 0.31 0.0 0 0 1199.39 43.43
  L 1191.48 55.69
  Z"
/>
<path fill="#000000" d="
  M 1232.81 112.64
  L 1246.20 109.37
  A 0.68 0.68 0.0 0 1 1247.04 110.00
  L 1247.33 117.17
  A 1.02 1.02 0.0 0 1 1246.65 118.17
  Q 1234.69 122.42 1222.11 124.17
  A 0.93 0.93 0.0 0 1 1221.06 123.25
  L 1221.10 38.74
  Q 1221.10 37.32 1222.51 37.32
  L 1261.72 37.22
  Q 1263.23 37.21 1263.23 38.72
  L 1263.26 78.73
  A 1.29 1.29 0.0 0 1 1261.96 80.02
  L 1247.83 79.95
  A 1.09 1.09 0.0 0 0 1246.80 81.40
  L 1249.77 90.07
  A 1.24 1.24 0.0 0 0 1252.00 90.32
  L 1254.90 85.61
  A 2.23 2.23 0.0 0 1 1256.76 84.55
  L 1264.28 84.39
  A 0.97 0.96 -76.1 0 1 1265.14 85.82
  Q 1261.47 92.46 1256.15 97.94
  A 2.22 2.22 0.0 0 0 1256.06 100.94
  L 1265.77 112.21
  A 0.59 0.56 26.5 0 1 1265.90 112.57
  L 1266.01 122.76
  A 1.09 1.09 0.0 0 1 1264.27 123.65
  C 1249.33 112.44 1241.91 98.38 1236.36 80.96
  A 2.49 2.49 0.0 0 0 1231.50 81.71
  L 1231.50 111.62
  A 1.06 1.05 -6.9 0 0 1232.81 112.64
  Z
  M 1253.4268 45.5492
  A 1.20 1.20 0.0 0 0 1252.2289 44.3471
  L 1232.6289 44.3129
  A 1.20 1.20 0.0 0 0 1231.4268 45.5108
  L 1231.4132 53.2908
  A 1.20 1.20 0.0 0 0 1232.6111 54.4929
  L 1252.2111 54.5271
  A 1.20 1.20 0.0 0 0 1253.4132 53.3292
  L 1253.4268 45.5492
  Z
  M 1253.69 62.48
  A 1.22 1.22 0.0 0 0 1252.47 61.26
  L 1232.25 61.26
  A 1.22 1.22 0.0 0 0 1231.03 62.48
  L 1231.03 71.54
  A 1.22 1.22 0.0 0 0 1232.25 72.76
  L 1252.47 72.76
  A 1.22 1.22 0.0 0 0 1253.69 71.54
  L 1253.69 62.48
  Z"
/>
<rect fill="#000000" x="1312.74" y="39.00" width="51.74" height="8.50" rx="1.22"/>
<rect fill="#000000" x="737.01" y="40.50" width="75.24" height="9.76" rx="1.07"/>
<path fill="#000000" d="
  M 1044.54 76.49
  L 1085.69 76.52
  A 1.29 1.29 0.0 0 1 1086.97 77.79
  L 1087.06 85.20
  A 1.29 1.29 0.0 0 1 1085.77 86.50
  L 1044.54 86.50
  A 1.29 1.29 0.0 0 0 1043.25 87.79
  L 1043.25 121.71
  A 1.29 1.29 0.0 0 1 1041.92 123.00
  L 1032.00 122.73
  A 1.29 1.29 0.0 0 1 1030.75 121.44
  L 1030.75 42.27
  A 1.29 1.29 0.0 0 1 1032.04 40.98
  L 1090.93 41.01
  A 1.29 1.29 0.0 0 1 1092.22 42.28
  L 1092.37 49.86
  A 1.29 1.29 0.0 0 1 1091.08 51.17
  L 1044.54 51.25
  A 1.29 1.29 0.0 0 0 1043.25 52.54
  L 1043.25 75.20
  A 1.29 1.29 0.0 0 0 1044.54 76.49
  Z"
/>
<path fill="#000000" d="
  M 952.20 47.27
  L 952.01 45.05
  A 0.13 0.13 0.0 0 0 951.77 45.00
  L 951.48 45.47
  Q 951.27 45.83 951.28 46.24
  L 951.87 96.15
  Q 954.74 108.36 963.79 112.21
  C 975.53 117.20 991.38 113.64 995.85 101.29
  Q 997.47 96.79 997.49 84.43
  Q 997.52 63.18 997.49 42.05
  A 1.05 1.05 0.0 0 1 998.54 41.00
  L 1008.73 41.00
  Q 1009.77 41.00 1009.77 42.04
  Q 1009.79 63.45 1009.73 84.22
  Q 1009.68 98.95 1008.12 104.08
  C 1002.29 123.14 979.57 127.06 962.05 122.62
  C 943.49 117.93 939.59 103.58 939.53 86.41
  Q 939.46 64.66 939.52 42.46
  Q 939.52 41.00 940.98 41.00
  L 951.32 41.00
  A 0.60 0.59 -1.0 0 1 951.92 41.57
  L 952.20 47.27
  Z"
/>
<path fill="#000000" d="
  M 1145.60 41.90
  A 0.91 0.91 0.0 0 1 1146.51 41.00
  L 1157.24 41.00
  A 0.95 0.94 89.7 0 1 1158.18 41.94
  Q 1158.42 65.65 1158.16 89.41
  Q 1158.01 102.43 1156.27 107.37
  C 1151.50 120.87 1136.45 125.32 1123.10 124.27
  C 1104.81 122.84 1096.68 114.26 1095.25 95.84
  A 1.24 1.23 87.6 0 1 1096.48 94.50
  L 1107.53 94.50
  A 1.25 1.25 0.0 0 1 1108.78 95.75
  C 1108.84 104.78 1112.41 111.53 1121.56 113.91
  C 1133.69 117.07 1145.45 109.63 1145.41 96.24
  Q 1145.33 68.97 1145.60 41.90
  Z"
/>
<path fill="#5a5a5a" d="
  M 952.20 47.27
  Q 952.39 67.59 952.04 87.95
  Q 952.03 88.56 952.28 92.02
  Q 952.45 94.29 951.87 96.15
  L 951.28 46.24
  Q 951.27 45.83 951.48 45.47
  L 951.77 45.00
  A 0.13 0.13 0.0 0 1 952.01 45.05
  L 952.20 47.27
  Z"
/>
<circle fill="#d32c1f" cx="113.17" cy="81.96" r="33.12"/>
<path fill="#000000" d="
  M 881.03 51.92
  Q 879.71 54.12 880.44 55.56
  Q 880.58 55.85 881.01 55.45
  L 881.43 55.77
  Q 881.72 56.00 882.09 56.00
  L 910.71 56.00
  Q 912.77 56.00 912.77 58.06
  C 912.78 59.77 913.39 63.85 910.21 63.48
  C 901.24 62.46 890.85 63.20 881.75 63.34
  Q 880.54 61.66 880.15 64.03
  Q 879.48 68.05 880.94 68.10
  L 917.07 68.33
  A 1.19 1.19 0.0 0 1 918.25 69.52
  L 918.25 74.25
  A 1.50 1.50 0.0 0 1 916.75 75.75
  L 892.16 75.75
  A 0.65 0.65 0.0 0 0 891.51 76.40
  L 891.51 80.85
  A 0.90 0.90 0.0 0 0 892.41 81.75
  L 917.59 81.75
  A 0.66 0.65 -0.0 0 1 918.25 82.40
  L 918.25 88.63
  A 0.60 0.59 -0.5 0 1 917.66 89.22
  Q 905.66 89.35 887.96 89.13
  Q 882.58 89.06 881.57 85.88
  L 881.98 75.93
  A 0.54 0.54 0.0 0 0 881.13 75.47
  Q 880.69 75.78 881.12 76.24
  Q 880.78 76.31 880.70 75.94
  Q 880.66 75.75 880.47 75.75
  L 867.72 75.75
  Q 867.05 75.75 866.61 76.26
  Q 853.45 91.68 833.14 94.75
  A 0.78 0.77 -4.2 0 1 832.25 93.99
  L 832.25 87.51
  A 1.48 1.48 0.0 0 1 833.45 86.06
  Q 844.33 83.97 853.00 77.22
  A 0.85 0.85 0.0 0 0 852.48 75.70
  L 833.26 75.77
  A 1.01 1.00 89.7 0 1 832.25 74.76
  L 832.25 69.54
  A 1.21 1.21 0.0 0 1 833.46 68.33
  L 868.68 68.31
  A 0.86 0.86 0.0 0 0 869.49 67.73
  Q 870.18 65.75 869.42 63.82
  A 0.89 0.89 0.0 0 0 868.59 63.25
  L 839.25 63.31
  A 1.50 1.50 0.0 0 1 837.74 61.75
  L 837.91 57.15
  A 1.19 1.19 0.0 0 1 839.10 56.00
  L 868.53 56.00
  Q 868.97 56.00 869.23 55.64
  Q 869.96 54.64 869.67 53.45
  A 1.68 1.68 0.0 0 1 871.13 51.37
  Q 876.69 50.80 881.03 51.92
  Z"
/>
<path fill="#5a5a5a" d="
  M 881.03 51.92
  L 881.01 55.45
  Q 880.58 55.85 880.44 55.56
  Q 879.71 54.12 881.03 51.92
  Z"
/>
<path fill="#000000" d="
  M 1290.67 89.35
  Q 1292.42 85.91 1287.77 89.04
  Q 1285.40 92.01 1281.79 93.78
  A 0.89 0.89 0.0 0 1 1280.50 92.98
  L 1280.51 84.10
  A 1.17 1.13 70.1 0 1 1280.90 83.23
  Q 1290.50 74.79 1295.73 63.16
  A 1.96 1.96 0.0 0 1 1297.52 62.00
  L 1306.48 62.00
  A 1.12 1.12 0.0 0 1 1307.48 63.63
  C 1305.53 67.43 1300.96 73.92 1300.97 77.89
  Q 1301.03 100.77 1300.99 123.47
  A 0.78 0.78 0.0 0 1 1300.21 124.25
  L 1291.74 124.25
  A 1.17 1.17 0.0 0 1 1290.57 123.08
  L 1290.67 89.35
  Z"
/>
<path fill="#5a5a5a" d="
  M 881.75 63.34
  Q 880.72 64.30 880.94 68.10
  Q 879.48 68.05 880.15 64.03
  Q 880.54 61.66 881.75 63.34
  Z"
/>
<path fill="#000000" d="
  M 1343.82 75.98
  L 1310.66 76.01
  A 1.66 1.66 0.0 0 1 1309.00 74.35
  L 1309.00 69.00
  A 1.50 1.50 0.0 0 1 1310.50 67.50
  L 1368.51 67.50
  A 0.71 0.71 0.0 0 1 1369.22 68.20
  L 1369.26 74.61
  A 1.38 1.37 89.8 0 1 1367.89 76.00
  L 1356.77 76.00
  A 0.49 0.49 0.0 0 0 1356.28 76.49
  Q 1356.19 92.87 1356.26 109.16
  C 1356.30 117.65 1353.74 123.30 1344.37 123.24
  Q 1336.33 123.18 1327.85 123.53
  A 2.02 2.02 0.0 0 1 1325.75 121.50
  L 1325.76 115.35
  A 1.60 1.60 0.0 0 1 1327.36 113.75
  Q 1334.40 113.79 1341.95 113.62
  Q 1344.52 113.57 1344.41 111.15
  C 1343.93 99.69 1344.68 88.01 1344.35 76.49
  A 0.53 0.53 0.0 0 0 1343.82 75.98
  Z"
/>
<rect fill="#000000" x="-34.77" y="-4.89" transform="translate(774.68,80.13) rotate(0.1)" width="69.54" height="9.78" rx="1.15"/>
<path fill="#5a5a5a" d="
  M 881.57 85.88
  Q 880.52 80.95 881.12 76.24
  Q 880.69 75.78 881.13 75.47
  A 0.54 0.54 0.0 0 1 881.98 75.93
  L 881.57 85.88
  Z"
/>
<path fill="#000000" d="
  M 871.22 91.27
  Q 869.94 90.95 870.04 92.30
  A 1.25 1.24 -1.5 0 0 871.26 93.45
  C 875.20 93.50 884.75 94.77 887.75 92.58
  L 908.04 92.78
  A 0.99 0.98 -6.4 0 1 908.99 93.53
  C 909.85 96.99 909.63 99.19 906.61 101.44
  Q 899.30 106.90 890.94 110.51
  Q 890.81 110.56 890.76 110.70
  Q 890.72 110.85 890.72 110.98
  Q 889.94 110.51 889.21 111.03
  Q 888.81 111.31 889.16 111.65
  Q 890.54 112.96 892.07 112.28
  Q 904.34 114.73 916.76 115.42
  A 1.57 1.57 0.0 0 1 918.25 116.99
  L 918.25 122.76
  A 1.42 1.42 0.0 0 1 916.72 124.18
  Q 896.24 122.60 876.55 116.76
  Q 876.03 116.61 875.52 116.78
  C 874.58 117.10 873.73 116.95 872.84 117.18
  Q 853.77 122.20 833.75 124.32
  A 1.37 1.36 -2.7 0 1 832.25 122.96
  L 832.26 116.33
  Q 832.26 115.65 832.93 115.61
  Q 846.46 114.83 859.49 111.88
  Q 861.08 112.30 862.44 111.49
  Q 862.90 111.22 862.69 110.72
  Q 862.08 109.31 860.71 110.04
  Q 857.98 107.97 854.68 106.19
  C 853.40 105.50 851.65 103.32 849.75 103.99
  Q 844.44 105.86 838.12 106.91
  A 1.18 1.18 0.0 0 1 836.75 105.75
  L 836.75 99.74
  A 1.44 1.44 0.0 0 1 837.94 98.32
  Q 853.06 95.73 864.84 85.60
  C 868.58 82.38 873.01 83.44 877.54 83.52
  A 0.71 0.71 0.0 0 1 878.15 84.58
  Q 875.72 88.86 871.22 91.27
  Z
  M 863.82 102.12
  L 873.73 106.71
  Q 875.29 107.43 876.89 106.81
  L 889.24 101.96
  Q 891.05 101.71 892.67 100.05
  Q 892.97 99.75 892.56 99.63
  Q 890.54 99.05 889.67 99.99
  L 863.60 99.77
  Q 862.44 98.71 860.66 99.61
  Q 860.22 99.84 860.50 100.23
  Q 861.70 101.93 863.82 102.12
  Z"
/>
<path fill="#000000" d="
  M 1209.32 87.10
  A 1.86 1.86 0.0 0 1 1211.40 85.50
  L 1214.96 85.96
  A 2.35 1.79 7.4 0 1 1217.06 88.04
  L 1215.05 103.51
  A 2.35 1.79 7.4 0 1 1212.49 104.98
  L 1208.93 104.52
  A 1.86 1.86 0.0 0 1 1207.33 102.43
  L 1209.32 87.10
  Z"
/>
<rect fill="#000000" x="-3.87" y="-10.31" transform="translate(1186.60,96.29) rotate(-5.6)" width="7.74" height="20.62" rx="1.30"/>
<path fill="#5a5a5a" d="
  M 1290.67 89.35
  Q 1289.97 88.79 1287.77 89.04
  Q 1292.42 85.91 1290.67 89.35
  Z"
/>
<path fill="#5a5a5a" d="
  M 871.22 91.27
  Q 871.18 92.86 872.56 92.67
  C 877.21 92.05 882.79 92.49 887.75 92.58
  C 884.75 94.77 875.20 93.50 871.26 93.45
  A 1.25 1.24 -1.5 0 1 870.04 92.30
  Q 869.94 90.95 871.22 91.27
  Z"
/>
<path fill="#5a5a5a" d="
  M 863.60 99.77
  Q 862.48 99.92 862.75 101.00
  Q 862.86 101.42 863.82 102.12
  Q 861.70 101.93 860.50 100.23
  Q 860.22 99.84 860.66 99.61
  Q 862.44 98.71 863.60 99.77
  Z"
/>
<path fill="#5a5a5a" d="
  M 889.24 101.96
  Q 889.85 100.98 889.67 99.99
  Q 890.54 99.05 892.56 99.63
  Q 892.97 99.75 892.67 100.05
  Q 891.05 101.71 889.24 101.96
  Z"
/>
<path fill="#5a5a5a" d="
  M 859.49 111.88
  Q 860.73 111.42 860.71 110.04
  Q 862.08 109.31 862.69 110.72
  Q 862.90 111.22 862.44 111.49
  Q 861.08 112.30 859.49 111.88
  Z"
/>
<path fill="#5a5a5a" d="
  M 890.72 110.98
  Q 891.05 111.97 892.07 112.28
  Q 890.54 112.96 889.16 111.65
  Q 888.81 111.31 889.21 111.03
  Q 889.94 110.51 890.72 110.98
  Z"
/>
<rect fill="#000000" x="733.67" y="111.26" width="82.08" height="10.74" rx="1.25"/>
</svg>
