<?xml version="1.0" encoding="UTF-8" standalone="no"?>
<!DOCTYPE svg PUBLIC "-//W3C//DTD SVG 1.1//EN" "http://www.w3.org/Graphics/SVG/1.1/DTD/svg11.dtd">
<svg width="100%" height="100%" viewBox="0 0 204 49" version="1.1" xmlns="http://www.w3.org/2000/svg" xmlns:xlink="http://www.w3.org/1999/xlink" xml:space="preserve" xmlns:serif="http://www.serif.com/" style="fill-rule:evenodd;clip-rule:evenodd;stroke-linejoin:round;stroke-miterlimit:2;">
    <g id="path2" transform="matrix(1,0,0,1,-0.0029297,-5.15651)">
        <path d="M45.507,27.589C45.507,27.122 45.122,26.735 44.658,26.735C44.588,26.735 44.526,26.744 44.456,26.761C36.916,28.32 29.06,28.936 21.011,28.496C18.533,28.364 16.089,28.496 13.69,28.681C13.506,28.699 13.322,28.716 13.147,28.743C11.22,29.007 9.389,29.852 7.953,31.244C6.683,32.476 5.79,34.07 5.405,35.796C4.949,37.875 5.273,40.023 6.158,41.952C7.016,43.819 8.391,45.439 10.09,46.601C11.938,47.834 13.979,48.803 16.116,49.445C17.464,49.851 18.664,50.097 20.074,50.273C20.092,49.745 20.906,48.908 20.933,48.512C20.959,48.116 20.652,47.755 20.258,47.728C18.051,47.808 16.431,47.755 14.364,46.989C12.245,46.196 10.318,44.893 8.794,43.211C8.058,42.41 7.454,41.52 7.069,40.499C6.683,39.486 6.517,38.394 6.578,37.311C6.788,33.674 9.626,30.601 13.252,30.081C15.257,29.791 17.333,30.31 18.962,31.499C19.812,32.124 20.547,32.917 21.081,33.824C21.686,34.845 22.194,35.928 22.544,37.073C23.28,39.442 23.341,42.04 23.026,44.488C22.885,45.527 22.675,46.557 22.377,47.561C22.211,48.133 22.01,48.706 21.782,49.252C21.738,49.357 21.721,49.463 21.721,49.578C21.721,50.044 22.088,50.414 22.553,50.423L22.763,50.423C28.342,50.423 33.448,48.424 37.406,45.113C37.406,45.113 37.415,45.113 37.424,45.104C37.581,44.946 37.678,44.734 37.678,44.505C37.678,44.329 37.616,44.18 37.538,44.039C36.058,41.476 32.826,37.795 32.826,37.795C32.826,37.795 36.478,41.053 39.105,42.48C39.245,42.559 39.403,42.621 39.578,42.621C39.815,42.621 40.025,42.524 40.174,42.374C40.174,42.366 40.191,42.357 40.2,42.348C43.528,38.412 45.525,33.339 45.525,27.8L45.525,27.589" style="fill:rgb(11,139,238);fill-rule:nonzero;"/>
    </g>
    <g id="path4" transform="matrix(1,0,0,1,-0.0029297,-5.15651)">
        <path d="M4.309,37.954C3.407,35.972 2.855,33.824 2.724,31.649C2.706,31.358 2.715,30.962 2.706,30.662C2.706,30.257 2.374,29.923 1.971,29.923C1.568,29.923 0.701,30.662 0.088,30.662C0.71,35.444 2.882,39.97 6.245,43.449C7.882,45.157 9.923,46.469 12.235,47.094C14.223,47.632 16.325,47.385 18.164,46.469C19.04,46.029 19.846,45.43 20.52,44.708C21.229,43.942 21.781,43.008 22.289,42.101C22.824,41.142 23.288,40.138 23.708,39.125C24.155,38.042 24.523,36.932 25.013,35.867C26.861,31.842 29.471,28.162 32.992,25.423C34.717,24.084 36.591,22.957 38.588,22.077C39.604,21.628 40.646,21.249 41.706,20.923C42.214,20.773 42.73,20.632 43.247,20.509C43.711,20.368 43.965,19.875 43.816,19.426C42.52,16.177 40.453,13.244 37.835,10.919C37.817,10.902 37.8,10.893 37.782,10.875C37.633,10.743 37.441,10.664 37.222,10.664C36.994,10.664 36.792,10.805 36.609,10.928C32.414,13.834 29.313,18.678 29.313,18.678C29.313,18.678 30.951,14.539 34.445,9.431C34.533,9.308 34.568,9.149 34.568,8.991C34.568,8.7 34.428,8.445 34.209,8.295C34.183,8.278 34.156,8.26 34.121,8.242C31.967,6.992 29.602,6.085 27.141,5.601C25.355,5.24 23.515,5.099 21.694,5.178L21.65,5.178C21.195,5.196 20.844,5.565 20.827,6.023C20.599,11.967 21.764,22.191 21.764,22.191C21.764,22.191 19.679,12.117 17.621,6.525C17.499,6.182 17.192,5.926 16.815,5.926C16.763,5.926 16.702,5.926 16.649,5.944L16.632,5.944C16.483,5.988 16.334,6.023 16.194,6.067C12.761,7.08 9.581,8.912 6.989,11.36C6.542,11.782 6.113,12.223 5.702,12.681C5.693,12.689 5.684,12.707 5.675,12.707C5.535,12.857 5.448,13.059 5.448,13.279C5.448,13.5 5.527,13.755 5.702,13.878C10.186,17.269 13.496,21.134 13.496,21.134C13.496,21.134 9.257,18.017 4.204,16.036C4.064,15.983 3.924,15.912 3.766,15.912C3.477,15.912 3.214,16.062 3.057,16.282L3.057,16.3C2.321,17.533 1.708,18.845 1.226,20.192C0.605,21.927 0.21,23.723 0.027,25.537C-0.017,26.004 -0.052,26.48 0.429,26.735C0.622,26.841 0.823,26.858 1.034,26.814C1.349,26.753 1.655,26.691 1.971,26.638C3.171,26.444 4.397,26.348 5.605,26.365C8.04,26.392 10.475,26.832 12.761,27.677C14.871,28.461 16.798,29.694 18.252,31.411C21.002,34.66 22.464,40.243 19.294,43.695C17.849,45.289 15.703,46.064 13.558,45.87C12.454,45.765 11.482,45.386 10.519,44.866C9.643,44.391 8.811,43.845 8.058,43.185C6.429,41.749 5.185,39.882 4.3,37.919" style="fill:rgb(255,205,0);fill-rule:nonzero;"/>
    </g>
    <g id="path6" transform="matrix(1,0,0,1,-0.0029297,-5.15651)">
        <path d="M61.936,15.622C61.936,13.015 62.487,12.733 65.859,12.311L65.859,10.911L52.617,10.911L52.617,12.311C55.936,12.733 56.541,13.006 56.541,15.622L56.541,32.344C56.541,40.358 61.384,44.083 69.135,44.083C75.73,44.083 80.993,40.358 80.993,32.485L80.993,15.666C80.993,13.059 81.589,12.733 84.917,12.311L84.917,10.911L74.442,10.911L74.442,12.311C78.269,12.681 78.917,13.059 78.917,15.666L78.917,31.649C78.917,38.5 75.318,41.335 69.695,41.335C64.668,41.335 61.944,37.839 61.944,31.975L61.944,15.622L61.936,15.622Z" style="fill:rgb(11,139,238);fill-rule:nonzero;"/>
    </g>
    <g id="path8" transform="matrix(1,0,0,1,-0.0029297,-5.15651)">
        <path d="M84.899,10.919L84.207,21.126L85.451,21.126C88.174,14.415 89.19,12.46 93.018,12.46L96.013,12.46L96.013,39.063C96.013,41.67 94.813,41.811 91.634,42.233L91.634,43.634L105.752,43.634L105.752,42.233C102.616,41.811 101.416,41.679 101.416,39.063L101.416,12.46L104.368,12.46C108.195,12.46 109.211,14.415 111.979,21.126L113.178,21.126L112.486,10.919L84.899,10.919Z" style="fill:rgb(11,139,238);fill-rule:nonzero;"/>
    </g>
    <g id="path10" transform="matrix(1,0,0,1,-0.0029297,-5.15651)">
        <path d="M122.689,42.551C118.582,42.551 117.189,37.1 117.189,30.627C117.189,24.155 119.125,20.289 122.908,20.289C127.06,20.289 128.908,25.696 128.908,32.212C128.908,38.729 126.473,42.551 122.689,42.551ZM122.9,44.091C129.354,44.091 134.338,38.826 134.338,30.812C134.338,23.635 129.862,18.748 123.127,18.748C116.392,18.748 111.689,24.014 111.689,31.974C111.689,39.239 116.165,44.083 122.9,44.083L122.9,44.091Z" style="fill:rgb(11,139,238);fill-rule:nonzero;"/>
    </g>
    <g id="path12" transform="matrix(1,0,0,1,-0.0029297,-5.15651)">
        <path d="M143.35,30.345L153.772,43.625L159.403,43.625L159.403,42.647L148.009,28.435L154.648,22.288C155.707,21.31 156.583,20.941 158.335,20.562L158.335,19.215L148.876,19.215L148.876,20.562C151.048,20.791 151.924,20.888 151.924,21.777C151.924,22.385 151.416,22.94 150.68,23.591L143.35,30.345ZM137.675,40.085C137.675,41.811 136.939,42.137 134.627,42.278L134.627,43.625L145.881,43.625L145.881,42.278C143.578,42.137 142.833,41.811 142.833,40.085L142.833,7.15L142.045,7.15L134.758,9.431L134.758,10.127L137.666,11.712L137.666,40.085L137.675,40.085Z" style="fill:rgb(11,139,238);fill-rule:nonzero;"/>
    </g>
    <g id="path14" transform="matrix(1,0,0,1,-0.0029297,-5.15651)">
        <path d="M172.075,38.315L166.129,23.406C165.945,22.851 165.848,22.473 165.848,22.103C165.848,21.029 166.68,20.844 169.027,20.562L169.027,19.215L157.773,19.215L157.773,20.562C159.437,20.985 159.709,21.31 160.129,22.288L169.676,44.373L168.843,46.61C167.784,49.498 166.216,50.194 163.72,50.194C162.433,50.194 161.741,50.009 160.856,49.771L160.856,51.585C161.268,52.986 162.792,53.822 164.272,53.822C167.179,53.822 168.607,51.823 169.991,48.274L179.957,22.279C180.325,21.346 180.649,20.976 182.313,20.553L182.313,19.206L174.659,19.206L174.659,20.553C177.015,20.835 177.838,21.02 177.838,22.094C177.838,22.464 177.742,22.843 177.558,23.398L172.066,38.306L172.075,38.315Z" style="fill:rgb(11,139,238);fill-rule:nonzero;"/>
    </g>
    <g id="path16" transform="matrix(1,0,0,1,-0.0029297,-5.15651)">
        <path d="M192.307,42.551C188.2,42.551 186.36,37.1 186.36,30.627C186.36,24.155 188.296,20.289 192.079,20.289C196.231,20.289 198.079,25.696 198.079,32.212C198.079,38.729 196.099,42.551 192.316,42.551L192.307,42.551ZM192.079,44.091C198.534,44.091 203.517,38.826 203.517,30.812C203.517,23.635 199.042,18.748 192.307,18.748C185.572,18.748 180.869,24.014 180.869,31.974C180.869,39.239 185.344,44.083 192.079,44.083L192.079,44.091Z" style="fill:rgb(11,139,238);fill-rule:nonzero;"/>
    </g>
</svg>
